<svg xmlns="http://www.w3.org/2000/svg" xmlns:xlink="http://www.w3.org/1999/xlink" version="1.1" x="0px" y="0px" viewBox="0 0 205.5 256.875" enable-background="new 0 0 205.5 205.5" xml:space="preserve"><path d="M185.067,135.19c-8.352-17.132-30.095-27.242-49.237-25.517c-2.309-23.984-7.645-47.914-17.149-70.019  c-4.854-11.288-10.938-20.581-20.83-28.069C89.109,4.969,77.144,1.771,66.75,6.205c-22.783,9.72-20.904,37.403-15.984,57.292  c2.564,10.366,6.315,20.381,9.337,30.612c1.284,4.347,2.399,8.753,3.625,13.119c1.257,4.474,2.868,9.361,2.58,14.087  c-21.442,3.461-41.399,23.887-40.86,45.94c0.433,17.731,17.247,29.042,33.405,31.28c16.844,2.334,37.545-2.469,49.008-15.887  c1.852,1.687,3.827,3.229,5.938,4.563c15.798,9.98,37.062,5.16,52.599-2.854c8.486-4.377,16.276-11.239,20.146-20.104  C190.688,154.76,189.528,144.34,185.067,135.19 M63.396,71.416c-4.924-15.92-12.736-41.659,3.452-53.885  c8.705-6.575,19.5-2.522,27.145,3.626c8.744,7.032,13.392,16.782,17.439,26.992c8.011,20.211,12.604,41.897,14.583,63.585  c-2.054,0.701-3.009,1.181-5.093,1.696c-9.268,2.28-16.705,7.398-21.589,14.443c-6.039-4.083-13.221-6.499-20.583-7.122  c-0.806-0.068-1.51,0.029-2.112,0.253c-0.095-0.01-0.189-0.012-0.284-0.021c0.503-8.207-3.229-16.978-5.317-24.706  C68.772,87.898,65.96,79.706,63.396,71.416C58.472,55.496,65.96,79.706,63.396,71.416z M99.115,177.461  c-13.109,13.71-38.578,15.309-54.128,5.447c-13.4-8.498-10.52-24.241-2.527-35.439c8.219-11.517,23.641-19.962,37.811-15.645  c2.326,0.709,4.433,1.922,6.457,3.245c1.833,1.198,3.617,0.996,4.969,0.071c1.052,0.66,2.055,1.389,3.017,2.166  c-1.025,3.214-1.643,6.65-1.805,10.266c-0.437,9.73,2.677,19.49,8.258,27.475C100.543,175.869,99.865,176.676,99.115,177.461z   M105.997,163.412c-0.006-0.013-0.012-0.023-0.018-0.036c-2.346-5.015-3.398-10.627-3.054-16.057  C105.521,152.301,106.713,157.906,105.997,163.412z M144.414,181.643c-12.154,2.613-23.178-0.023-31.082-7.73  c4.597-10.739,3.168-23.503-2.451-33.572c-1.174-2.104-2.547-4.041-4.075-5.82c1.986-3.271,4.739-6.111,8.304-8.232  c3.114-1.854,8.174-1.91,10.741-4.429c1.866,0.232,1.11,2.265,2.72,3.546c4.899,3.901,8.331-1.156,8.051-5.692  c16.638-1.543,35.493,7.813,41.146,23.706C185.451,165.018,161.907,177.881,144.414,181.643" fill="#c0ce7d"/><path d="M82.786,27.215c-1.552-1.839-3.975-3.434-6.5-2.56c-0.703,0.244-1.4,0.599-1.994,1.073  c-0.209,0.155-0.407,0.317-0.577,0.487c-0.664,0.665-1.113,1.508-1.323,2.414c-0.43,0.503-0.766,1.076-0.963,1.793  c-0.355,1.291-0.172,2.698,0.504,3.853c0.655,1.118,1.738,1.954,2.988,2.298c1.191,0.328,2.811,0.243,3.853-0.504  c0.146-0.104,0.285-0.216,0.427-0.324c0.017,0.002,0.033,0.005,0.05,0.007c1.703,0.173,3.496-1.074,4.317-2.477  c0.452-0.78,0.68-1.621,0.683-2.523C84.25,29.337,83.67,28.264,82.786,27.215z" fill="#c0ce7d"/></svg>